PathFileType	4	(X/Y/Z)	OpenSim_Sub05_EMGBaseline_Accel.trc
DataRate	CameraRate	NumFrames	NumMarkers	Units	OrigDataRate	OrigDataStartFrame	OrigNumFrames
100	100	13	8	m	100	2978	11909
Frame#	Time	torso_imu_offset_imu	pelvis_imu_offset_imu	tibia_r_imu_offset_imu	femur_r_imu_offset_imu	tibia_l_imu_offset_imu	femur_l_imu_offset_imu	toes_r_imu_offset_imu	toes_l_imu_offset_imu
				X1	Y1	Z1	X2	Y2	Z2	X3	Y3	Z3	X4	Y4	Z4	X5	Y5	Z5	X6	Y6	Z6	X7	Y7	Z7	X8		Y8	Z8	

2978	29.77000000	7.89785200	2.96973100	5.22957700	7.53929300	0.00776200	3.92737800	10.91469800	3.10577000	-0.27031100	11.24878500	1.25770900	4.90928400	8.51367800	-1.63074100	-0.18130800	9.79834300	-3.03408000	-0.80110700	16.59026700	-8.64250900	7.89965600	4.38225100	2.84168700	11.53694800
2979	29.78000000	8.05121600	2.84883800	4.93305900	7.76364700	-1.10382500	3.92288400	9.80443700	6.17186700	-0.28384100	11.47118000	1.24912500	4.18418500	10.01428900	-1.51048800	-1.00422200	10.24015700	-2.13029500	-1.19475700	13.37113300	-6.17528100	8.00566400	4.94513400	1.93038300	11.71476500
2980	29.79000000	8.30500000	2.67346100	5.01512500	8.01117800	-2.37252700	3.76356000	8.82290400	8.48380300	-0.62434400	11.37089100	1.03518000	3.39417900	11.25651900	-2.09489600	-1.11377900	10.81328900	-0.96002200	-1.43714400	10.04852500	-1.91341300	9.26337100	5.29738000	1.16467800	11.02635100
2981	29.80000000	8.62092300	2.55787300	5.05326200	8.45078500	-3.56548300	3.64088700	7.97543000	10.60642900	-1.04504900	11.08871200	0.16754300	2.80219000	11.82719000	-2.42453200	-0.43662700	10.61122100	0.16337200	-0.98090400	9.59652000	0.55379700	17.92267000	5.63915400	0.98275000	11.51501300
2982	29.81000000	8.73593400	2.46362800	4.96826000	8.75471900	-4.15848800	3.41815100	6.80845700	12.79098100	-1.34310500	11.00542800	-0.86931100	2.68289100	11.26672300	-2.44173500	0.47578400	10.18317300	1.05705100	-0.43426900	11.11161600	-3.25438700	16.37105100	4.92743300	0.86215500	11.39037500
2983	29.82000000	8.77497400	2.42044800	5.16350900	9.26928900	-4.30873600	3.32636700	4.83743300	14.79811900	-1.63555600	10.86623000	-2.18949700	2.99167400	10.00286600	-1.36640900	0.93861200	9.92226700	1.22296500	-0.36310700	0.17891300	-2.46109300	12.02249400	4.60232600	1.72387600	11.23192300
2984	29.83000000	8.94742100	2.42237000	5.28659300	9.55724900	-3.61337900	3.13358300	2.96588400	14.21572000	-2.70100600	11.11216800	-3.28337000	3.76353300	9.06011100	0.78278800	0.75518800	9.48731200	0.60337800	-0.55532600	3.98202800	-8.06297100	11.00320000	4.97418800	2.25662300	11.33978400
2985	29.84000000	9.47417500	2.42244700	5.41356400	10.10334100	-3.00124900	3.05013200	2.40824000	10.70562900	-0.34699400	11.24258400	-4.14217800	4.24006400	8.81885200	1.64970900	-0.30441100	9.20829200	-0.45463700	-0.55306200	-2.25858900	-4.08790000	8.33112700	4.64538200	2.24723600	11.23367700
2986	29.85000000	9.90110700	2.28692500	5.39717600	10.16004500	-1.85220700	2.91836800	2.08404100	6.30297400	2.70686100	10.79026300	-4.27671100	4.12687200	9.33925800	0.22800600	-1.65302900	9.09771000	-0.81702800	-0.56749700	-1.03266800	-2.65599000	8.00525200	4.54379300	2.53258500	11.19229200
2987	29.86000000	9.99606800	2.03943800	5.52732300	10.29050000	-0.99904500	2.89717800	1.32393500	3.29295600	1.39606200	10.39866100	-3.78289000	3.75079300	10.23582800	-1.65321600	-2.27845000	9.35285600	-0.38508600	-0.68948400	0.47575600	-1.97852400	7.91809900	4.77444600	2.44894000	10.99565600
2988	29.87000000	10.02420000	1.71557700	5.65236800	10.56708100	-0.89158300	2.83367700	1.17669300	2.30463600	1.72004700	10.02807600	-3.05397400	3.64955800	10.67696100	-2.86939700	-2.20488600	9.62315800	0.53443300	-0.98897000	0.10572000	-1.91304200	7.62485800	4.98555200	2.42058700	10.98000300
2989	29.88000000	9.76994800	1.45692600	5.77392000	10.44736500	-0.73996400	2.76100400	1.37476400	2.62841800	2.90653700	9.55409800	-2.43182600	3.62315400	10.15023500	-3.50467800	-1.81119200	9.65687300	1.51098100	-1.11111000	0.77514000	-2.85613300	7.47464400	5.14429700	2.27268000	10.86098200
2990	29.89000000	9.36115800	1.51024400	5.76464200	10.08208200	-1.01017800	2.69423800	1.14562100	3.67957700	2.15074900	8.98166500	-1.93046300	3.66517000	9.44361300	-3.22181100	-1.07795400	9.65566900	2.13594600	-1.03564100	0.91646000	-2.39069600	7.47907900	4.91531800	2.15272500	11.32217100
